<svg width="174" height="24" viewBox="0 0 174 24" fill="none" xmlns="http://www.w3.org/2000/svg"><g clip-path="url(#clip0_352_727)"><path d="M26.0139 11.29C26.0139 14.1198 26.0139 16.9496 26.0139 19.7795C25.9604 23.6693 23.542 25.1863 20.5614 22.8913C17.4201 20.4699 14.5466 17.6401 11.557 14.9853C10.5308 14.0129 9.52236 13.1085 8.48718 12.1847C8.16592 11.9026 7.85357 11.3775 7.36275 11.6304C6.87193 11.8832 7.01475 12.4764 7.00582 12.9237C7.00582 15.8411 6.95228 18.7584 7.00582 21.6757C7.00582 23.0955 6.67563 23.7179 5.22102 23.6887C-1.13286 23.5818 0.0897045 24.35 0.0093886 18.3403C-0.0530793 13.7309 0.0093886 9.12143 0.0093886 4.51203C0.0093886 2.90749 0.1254 1.2738 1.57109 0.525017C2.28295 0.128928 3.08644 -0.0288642 3.88041 0.0714973C4.67438 0.171859 5.42334 0.525906 6.03308 1.08905C9.31711 4.0064 12.5654 6.92374 15.8495 9.84108C16.1279 10.1224 16.4263 10.3793 16.7419 10.6093C17.4201 11.0469 17.9377 12.2236 18.7587 11.8249C19.7403 11.3581 19.2406 10.1133 19.2584 9.20897C19.3298 6.78757 19.2584 4.34675 19.2584 1.93508C19.2584 0.622274 19.7582 -0.009817 20.9897 -0.009817C27.2365 -0.009817 25.9693 -0.641922 26.0764 4.95938C26.0496 7.07931 26.0139 9.18953 26.0139 11.29Z" fill="white"/><path d="M143.693 10.8326C145.014 7.49714 146.513 5.61059 149.86 5.9704C153.206 6.33021 156.678 6.04821 160.096 6.04821C161.318 6.04821 162.568 6.20383 163.112 7.59443C163.656 8.98503 162.764 10.0255 161.836 10.8812C159.685 12.8261 157.517 14.8197 155.366 16.8035C154.929 17.2119 154.224 17.6009 154.473 18.2913C154.723 18.9818 155.482 18.7775 156.044 18.7872C161.46 18.9719 166.853 17.9494 171.893 15.7824C173.615 14.9947 174.347 15.7046 173.919 17.7273C173.666 18.7042 173.606 19.728 173.74 20.7321C173.964 22.1616 172.527 22.3367 171.581 22.609C168.395 23.4097 165.131 23.782 161.863 23.7176C156.892 23.8245 151.921 23.7176 146.951 23.7176C145.719 23.7176 144.434 23.6495 143.934 22.2103C143.435 20.7711 144.514 19.8278 145.407 19.0012C147.665 16.9105 149.967 14.878 152.225 12.7873C152.635 12.408 153.34 12.0482 153.01 11.2702C152.742 10.6479 152.118 10.8424 151.6 10.8424C149.048 10.8229 146.531 10.8326 143.693 10.8326Z" fill="white"/><path d="M63.3958 6.1071H70.7492C72.061 6.1071 72.3823 6.48637 71.5345 7.77C68.5182 12.3502 65.6179 17.0374 62.5569 21.5884C60.5847 24.5058 57.9433 24.5058 55.9354 21.5884C52.9726 17.2513 50.0812 12.8364 47.2077 8.45067C46.8507 7.91582 46.1368 7.32268 46.574 6.55444C47.0113 5.78621 47.7966 6.25299 48.4302 6.1363C50.929 5.6598 52.6067 6.75867 53.9185 9.05364C55.2304 11.3486 56.7564 13.381 58.1574 15.5593C58.8535 16.629 59.5228 16.7456 60.1475 15.5593C60.9238 14.12 62.8246 12.7392 62.4141 11.3777C62.0036 10.0163 59.7369 10.9013 58.3537 10.7457C56.9705 10.5901 54.6414 8.62572 54.3558 7.12816C54.1059 5.84452 55.0073 6.10709 55.6052 6.09736C58.2021 6.09736 60.7989 6.09736 63.3958 6.09736V6.1071Z" fill="white"/><path d="M44.6733 23.6114H37.1057C35.9188 23.6114 35.7582 23.203 36.2937 22.0069C37.5073 19.3132 39.4974 18.7492 42.005 19.0118C42.7368 19.0896 43.7898 19.5174 44.2093 18.5061C44.5127 17.7184 43.6381 17.0863 43.2365 16.4542C40.827 12.6422 40.8181 12.6519 38.3105 16.4542C37.3006 17.7403 36.4042 19.1274 35.6333 20.5969C34.2412 23.8934 31.7246 23.7573 29.0831 23.6017C27.6909 23.5142 27.8605 22.8627 28.4762 21.9388C31.5104 17.3683 34.4642 12.7297 37.5965 8.23702C39.6937 5.23216 42.121 5.21271 44.1825 8.23702C47.2434 12.6908 50.1169 17.2905 53.0529 21.8513C53.9988 23.3002 53.285 23.66 52.0267 23.6503H44.6822L44.6733 23.6114Z" fill="white"/><path d="M132.771 18.8366C131.174 18.1656 130.094 16.7361 128.755 15.6664C127.631 14.7523 127.444 15.4719 127.274 16.4541C125.549 16.1289 123.861 15.6007 122.241 14.8787C121.866 13.0505 122.17 11.1834 122.062 9.34552C121.991 8.13968 122.143 6.93385 123.196 6.42818C123.759 6.10129 124.398 5.96286 125.033 6.03033C125.668 6.0978 126.271 6.36812 126.765 6.80739C129.228 8.99539 131.674 11.2028 134.154 13.3714C134.699 13.8382 135.216 14.7717 135.984 14.3439C136.751 13.916 136.287 13.0214 136.314 12.3309C136.385 10.8798 136.385 9.42548 136.314 7.97434C136.216 6.44759 136.832 5.95163 138.099 6.07805C138.839 6.12669 139.581 6.12669 140.321 6.07805C141.213 6.07805 141.668 6.4768 141.651 7.51731C141.579 12.2629 141.544 17.0181 141.49 21.7636C140.689 21.6671 139.903 21.4579 139.152 21.1413C137.046 20.3828 135.145 18.8561 132.771 18.8366Z" fill="white"/><path d="M86.2147 7.98451C86.5538 9.11255 86.0541 10.367 86.7234 11.6701L91.1854 8.34431C92.8453 9.66684 95.0584 8.44156 96.7272 9.74464C95.0495 11.0769 93.4164 12.4772 91.694 13.722C90.3554 14.6944 90.3554 15.3751 91.694 16.3281C94.4783 18.273 97.2001 20.4124 99.9487 22.4643C100.181 22.6393 100.484 22.7657 100.359 23.5339C97.5214 23.4561 94.5497 24.5939 91.8725 22.1725C90.6232 21.0348 89.1953 20.0915 87.9103 19.0607C86.9197 18.2827 86.2683 18.2924 86.3129 19.8873C86.3129 20.1304 86.3129 20.3735 86.3129 20.6166C86.2683 23.3881 84.3853 24.6425 81.949 23.5339C80.9942 23.1061 81.1905 22.2503 81.1905 21.4918C81.1905 16.8046 81.1905 12.1207 81.1905 7.43994C82.8288 7.90686 84.5242 8.09061 86.2147 7.98451Z" fill="white"/><path d="M108.338 11.1446C108.338 12.5158 109.123 12.6908 110.123 12.6422C112.63 12.5255 115.147 12.3796 117.655 12.3018C119.118 12.3018 119.609 12.827 118.663 14.3246C117.548 16.075 116.343 17.3586 114.121 17.0182C112.635 16.9 111.144 16.9 109.659 17.0182C109.034 17.0182 108.383 17.1543 108.311 17.9906C108.231 18.9631 108.972 19.1576 109.659 19.1673C112.47 19.1673 115.29 19.1673 118.11 19.1673C118.663 19.1673 119.386 18.895 119.698 19.6438C120.011 20.3926 119.413 20.8302 119.1 21.3553C118.697 22.1643 118.082 22.824 117.334 23.2501C116.585 23.6762 115.737 23.8494 114.897 23.7476C111.649 23.5336 108.374 23.6406 105.081 23.7476C103.689 23.7476 103.055 23.3683 103.109 21.7151C103.216 18.0101 103.18 14.3051 103.207 10.5903C104.92 11.1252 106.651 10.9696 108.338 11.1446Z" fill="white"/><path d="M79.3169 15.0048C79.3169 17.3387 79.2722 19.6725 79.3169 22.0064C79.3169 23.5234 78.5762 23.8346 77.532 23.6401C76.4879 23.4456 74.48 24.5445 74.4086 22.1717C74.2569 17.3095 74.3462 12.35 74.3284 7.43911C74.2944 7.20533 74.3277 6.96585 74.4235 6.75346C74.5194 6.54107 74.6731 6.36619 74.8638 6.25276C75.3076 5.95849 75.8152 5.79784 76.3346 5.78719C76.8541 5.77654 77.3668 5.91623 77.8205 6.1921C78.2742 6.46796 78.6525 6.87008 78.917 7.35738C79.1815 7.84469 79.3225 8.39974 79.3258 8.96586C79.3258 10.9497 79.3228 12.9626 79.3169 15.0048Z" fill="white"/><path d="M108.338 11.1446C106.651 10.9598 104.92 11.1446 103.269 10.532C103.215 10.0555 103.171 9.55954 103.099 9.10249C102.769 6.87558 103.43 5.93228 105.705 6.03925C109.855 6.24347 114.022 6.08788 118.199 6.10733C118.832 6.10733 119.662 5.76696 120.064 6.4574C120.465 7.14784 119.627 7.71188 119.323 8.30507C118.901 9.24955 118.209 10.0196 117.352 10.4999C116.494 10.9802 115.517 11.145 114.567 10.9696C112.489 10.892 110.409 10.9505 108.338 11.1446Z" fill="white"/><path d="M122.25 14.8584C123.871 15.5803 125.558 16.1086 127.283 16.4338C127.283 17.7174 127.391 19.001 127.391 20.3235C127.391 23.6979 126.275 24.5634 123.205 23.7076C122.232 23.4354 122.161 22.7352 122.179 21.8989C122.206 19.5456 122.224 17.2117 122.25 14.8584Z" fill="white"/><path d="M96.7537 9.74435C95.0849 8.44127 92.8718 9.66655 91.2119 8.34402C93.8891 4.78487 97.3427 6.39916 101.028 6.12687C99.9252 7.72678 98.4493 8.9758 96.7537 9.74435Z" fill="white"/><path d="M132.771 18.8359C135.136 18.8359 137.037 20.3821 139.17 21.16C139.921 21.4767 140.707 21.6859 141.508 21.7824C140.83 23.7954 139.304 24.515 137.608 23.2897C135.769 22.1256 134.132 20.618 132.771 18.8359Z" fill="white"/><path d="M86.2141 7.98347C84.5368 8.09501 82.8537 7.92116 81.2255 7.4681C81.0203 6.9916 81.0025 6.33031 81.4665 6.28169C82.8967 6.12616 84.3376 6.12616 85.7679 6.28169C86.6335 6.34003 86.3658 7.29303 86.2141 7.98347Z" fill="white"/></g><defs><clipPath id="clip0_352_727"><rect width="174" height="24" fill="white"/></clipPath></defs></svg>